<svg width="20" height="21" viewBox="0 0 20 21" fill="none" xmlns="http://www.w3.org/2000/svg">
<path d="M11.6667 7.99984H9.58342C8.89306 7.99984 8.33342 8.55948 8.33342 9.24984C8.33342 9.94019 8.89306 10.4998 9.58342 10.4998H10.4167C11.1071 10.4998 11.6667 11.0595 11.6667 11.7498C11.6667 12.4402 11.1071 12.9998 10.4167 12.9998H8.33342M10.0001 7.1665V7.99984M10.0001 12.9998V13.8332M15.0001 10.4998H15.0084M5.00008 10.4998H5.00842M1.66675 7.33317L1.66675 13.6665C1.66675 14.5999 1.66675 15.0666 1.8484 15.4232C2.00819 15.7368 2.26316 15.9917 2.57676 16.1515C2.93328 16.3332 3.39999 16.3332 4.33341 16.3332L15.6667 16.3332C16.6002 16.3332 17.0669 16.3332 17.4234 16.1515C17.737 15.9917 17.992 15.7368 18.1518 15.4232C18.3334 15.0666 18.3334 14.5999 18.3334 13.6665V7.33317C18.3334 6.39975 18.3334 5.93304 18.1518 5.57652C17.992 5.26292 17.737 5.00795 17.4234 4.84816C17.0669 4.66651 16.6002 4.66651 15.6667 4.6665L4.33342 4.6665C3.39999 4.6665 2.93328 4.6665 2.57676 4.84816C2.26316 5.00795 2.00819 5.26292 1.8484 5.57652C1.66675 5.93304 1.66675 6.39975 1.66675 7.33317ZM15.4167 10.4998C15.4167 10.73 15.2302 10.9165 15.0001 10.9165C14.77 10.9165 14.5834 10.73 14.5834 10.4998C14.5834 10.2697 14.77 10.0832 15.0001 10.0832C15.2302 10.0832 15.4167 10.2697 15.4167 10.4998ZM5.41675 10.4998C5.41675 10.73 5.2302 10.9165 5.00008 10.9165C4.76996 10.9165 4.58341 10.73 4.58341 10.4998C4.58341 10.2697 4.76996 10.0832 5.00008 10.0832C5.2302 10.0832 5.41675 10.2697 5.41675 10.4998Z" stroke="black" stroke-opacity="0.7" stroke-width="2" stroke-linecap="round" stroke-linejoin="round"/>
</svg>
