<svg width="20" height="21" viewBox="0 0 20 21" fill="none" xmlns="http://www.w3.org/2000/svg">
<path d="M11.2747 7.45972C10.7976 7.79979 10.2139 7.99984 9.58342 7.99984C7.97258 7.99984 6.66675 6.694 6.66675 5.08317C6.66675 3.47234 7.97258 2.1665 9.58342 2.1665C10.6276 2.1665 11.5436 2.71519 12.0588 3.53996M5.00008 17.2391H7.17532C7.45894 17.2391 7.74082 17.2729 8.01576 17.3404L10.3142 17.8989C10.8129 18.0204 11.3324 18.0322 11.8363 17.9343L14.3776 17.4399C15.0489 17.3092 15.6664 16.9877 16.1504 16.5169L17.9483 14.7679C18.4618 14.2693 18.4618 13.4602 17.9483 12.9607C17.486 12.511 16.754 12.4604 16.231 12.8418L14.1356 14.3705C13.8355 14.5899 13.4703 14.708 13.0948 14.708H11.0713L12.3593 14.708C13.0853 14.708 13.6733 14.1359 13.6733 13.4298V13.1741C13.6733 12.5878 13.2631 12.0765 12.6785 11.9347L10.6906 11.4513C10.3671 11.3728 10.0357 11.3332 9.7027 11.3332C8.89869 11.3332 7.44333 11.9989 7.44333 11.9989L5.00008 13.0206M16.6667 5.9165C16.6667 7.52733 15.3609 8.83317 13.7501 8.83317C12.1393 8.83317 10.8334 7.52733 10.8334 5.9165C10.8334 4.30567 12.1393 2.99984 13.7501 2.99984C15.3609 2.99984 16.6667 4.30567 16.6667 5.9165ZM1.66675 12.6665L1.66675 17.4998C1.66675 17.9665 1.66675 18.1999 1.75758 18.3782C1.83747 18.535 1.96495 18.6624 2.12176 18.7423C2.30002 18.8332 2.53337 18.8332 3.00008 18.8332H3.66675C4.13346 18.8332 4.36681 18.8332 4.54507 18.7423C4.70188 18.6624 4.82936 18.535 4.90925 18.3782C5.00008 18.1999 5.00008 17.9665 5.00008 17.4998V12.6665C5.00008 12.1998 5.00008 11.9664 4.90925 11.7882C4.82936 11.6314 4.70188 11.5039 4.54507 11.424C4.36681 11.3332 4.13346 11.3332 3.66675 11.3332L3.00008 11.3332C2.53337 11.3332 2.30002 11.3332 2.12176 11.424C1.96495 11.5039 1.83747 11.6314 1.75758 11.7882C1.66675 11.9664 1.66675 12.1998 1.66675 12.6665Z" stroke="black" stroke-opacity="0.7" stroke-width="2" stroke-linecap="round" stroke-linejoin="round"/>
</svg>
