<svg width="28" height="28" viewBox="0 0 28 28" fill="none" xmlns="http://www.w3.org/2000/svg">
<rect x="0.25" y="0.25" width="27.5" height="27.5" rx="4.75" fill="#FEEFF0"/>
<rect x="0.25" y="0.25" width="27.5" height="27.5" rx="4.75" stroke="#C34141" stroke-width="0.5"/>
<path d="M4.42012 14.7132C4.28394 14.4975 4.21584 14.3897 4.17772 14.2234C4.14909 14.0985 4.14909 13.9015 4.17772 13.7766C4.21584 13.6103 4.28394 13.5025 4.42012 13.2868C5.54553 11.5048 8.8954 7 14.0004 7C19.1054 7 22.4553 11.5048 23.5807 13.2868C23.7169 13.5025 23.785 13.6103 23.8231 13.7766C23.8517 13.9015 23.8517 14.0985 23.8231 14.2234C23.785 14.3897 23.7169 14.4975 23.5807 14.7132C22.4553 16.4952 19.1054 21 14.0004 21C8.8954 21 5.54553 16.4952 4.42012 14.7132Z" stroke="#C34141" stroke-width="2" stroke-linecap="round" stroke-linejoin="round"/>
<path d="M14.0004 17C15.6573 17 17.0004 15.6569 17.0004 14C17.0004 12.3431 15.6573 11 14.0004 11C12.3435 11 11.0004 12.3431 11.0004 14C11.0004 15.6569 12.3435 17 14.0004 17Z" stroke="#C34141" stroke-width="2" stroke-linecap="round" stroke-linejoin="round"/>
</svg>
