<svg width="28" height="28" viewBox="0 0 28 28" fill="none" xmlns="http://www.w3.org/2000/svg">
<rect x="0.25" y="0.25" width="27.5" height="27.5" rx="4.75" fill="#FEEFF0"/>
<rect x="0.25" y="0.25" width="27.5" height="27.5" rx="4.75" stroke="#C34141" stroke-width="0.5"/>
<path d="M11 5H17M5 8H23M21 8L20.2987 18.5193C20.1935 20.0975 20.1409 20.8867 19.8 21.485C19.4999 22.0118 19.0472 22.4353 18.5017 22.6997C17.882 23 17.0911 23 15.5093 23H12.4907C10.9089 23 10.118 23 9.49834 22.6997C8.95276 22.4353 8.50009 22.0118 8.19998 21.485C7.85911 20.8867 7.8065 20.0975 7.70129 18.5193L7 8M12 12.5V17.5M16 12.5V17.5" stroke="#C34141" stroke-width="2" stroke-linecap="round" stroke-linejoin="round"/>
</svg>
