<svg width="28" height="27" viewBox="0 0 28 27" fill="none" xmlns="http://www.w3.org/2000/svg">
<path d="M26.5 13.375V17.25C26.5 20.0503 26.5 21.4504 25.955 22.52C25.4757 23.4608 24.7108 24.2257 23.77 24.705C22.7004 25.25 21.3003 25.25 18.5 25.25H9.5C6.69974 25.25 5.29961 25.25 4.23005 24.705C3.28924 24.2257 2.52433 23.4608 2.04497 22.52C1.5 21.4504 1.5 20.0503 1.5 17.25V10.75C1.5 7.94974 1.5 6.54961 2.04497 5.48005C2.52433 4.53924 3.28924 3.77433 4.23005 3.29497C5.29961 2.75 6.69974 2.75 9.5 2.75H14.625M22.75 9V1.5M19 5.25H26.5M19 14C19 16.7614 16.7614 19 14 19C11.2386 19 9 16.7614 9 14C9 11.2386 11.2386 9 14 9C16.7614 9 19 11.2386 19 14Z" stroke="black" stroke-opacity="0.75" stroke-width="2" stroke-linecap="round" stroke-linejoin="round"/>
</svg>
