<svg width="20" height="21" viewBox="0 0 20 21" fill="none" xmlns="http://www.w3.org/2000/svg">
<path d="M13.3333 7.16677V4.25065C13.3333 3.55753 13.3333 3.21097 13.1873 2.998C13.0598 2.81192 12.8622 2.68551 12.6398 2.64767C12.3852 2.60435 12.0706 2.74958 11.4413 3.04003L4.04918 6.45176C3.48792 6.7108 3.20729 6.84032 3.00175 7.0412C2.82005 7.21878 2.68135 7.43556 2.59625 7.67496C2.5 7.94576 2.5 8.25483 2.5 8.87299V13.0001M13.75 12.5834H13.7583M2.5 9.83343L2.5 15.3334C2.5 16.2669 2.5 16.7336 2.68166 17.0901C2.84144 17.4037 3.09641 17.6587 3.41002 17.8184C3.76654 18.0001 4.23325 18.0001 5.16667 18.0001H14.8333C15.7668 18.0001 16.2335 18.0001 16.59 17.8184C16.9036 17.6587 17.1586 17.4037 17.3183 17.0901C17.5 16.7336 17.5 16.2669 17.5 15.3334V9.83343C17.5 8.90001 17.5 8.4333 17.3183 8.07678C17.1586 7.76318 16.9036 7.50821 16.59 7.34842C16.2335 7.16677 15.7668 7.16677 14.8333 7.16677L5.16667 7.16677C4.23325 7.16677 3.76654 7.16677 3.41002 7.34842C3.09641 7.50821 2.84144 7.76318 2.68166 8.07678C2.5 8.4333 2.5 8.90001 2.5 9.83343ZM14.1667 12.5834C14.1667 12.8136 13.9801 13.0001 13.75 13.0001C13.5199 13.0001 13.3333 12.8136 13.3333 12.5834C13.3333 12.3533 13.5199 12.1668 13.75 12.1668C13.9801 12.1668 14.1667 12.3533 14.1667 12.5834Z" stroke="black" stroke-opacity="0.7" stroke-width="2" stroke-linecap="round" stroke-linejoin="round"/>
</svg>
