<svg width="34" height="34" viewBox="0 0 34 34" fill="none" xmlns="http://www.w3.org/2000/svg">
<rect width="34" height="34" rx="7" fill="#E01600" fill-opacity="0.25"/>
<path d="M26 13H8M21 7V10M13 7V10M12.8 27H21.2C22.8802 27 23.7202 27 24.362 26.673C24.9265 26.3854 25.3854 25.9265 25.673 25.362C26 24.7202 26 23.8802 26 22.2V13.8C26 12.1198 26 11.2798 25.673 10.638C25.3854 10.0735 24.9265 9.6146 24.362 9.32698C23.7202 9 22.8802 9 21.2 9H12.8C11.1198 9 10.2798 9 9.63803 9.32698C9.07354 9.6146 8.6146 10.0735 8.32698 10.638C8 11.2798 8 12.1198 8 13.8V22.2C8 23.8802 8 24.7202 8.32698 25.362C8.6146 25.9265 9.07354 26.3854 9.63803 26.673C10.2798 27 11.1198 27 12.8 27ZM16.9973 17.3306C16.1975 16.4216 14.8639 16.1771 13.8619 17.0094C12.8599 17.8418 12.7188 19.2335 13.5057 20.2179C14.077 20.9327 15.6593 22.3397 16.4833 23.0569C16.662 23.2124 16.7513 23.2902 16.856 23.321C16.9466 23.3477 17.0479 23.3477 17.1386 23.321C17.2432 23.2902 17.3325 23.2124 17.5112 23.0569C18.3353 22.3397 19.9175 20.9327 20.4888 20.2179C21.2757 19.2335 21.1519 17.8331 20.1326 17.0094C19.1134 16.1858 17.797 16.4216 16.9973 17.3306Z" stroke="#E01600" stroke-width="2" stroke-linecap="round" stroke-linejoin="round"/>
</svg>
