<svg width="18" height="16" viewBox="0 0 18 16" fill="none" xmlns="http://www.w3.org/2000/svg">
<mask id="path-1-inside-1_50_128" fill="white">
<path fill-rule="evenodd" clip-rule="evenodd" d="M0 4.95833C0 6.16231 0.429122 7.26607 1.14276 8.125H1.11686L8.875 16L16.6331 8.125H16.5916C17.2646 7.27855 17.6667 6.20706 17.6667 5.04167C17.6667 2.30325 15.4467 0.0833333 12.7083 0.0833333C11.1591 0.0833333 9.77589 0.793814 8.86664 1.90671C7.95912 0.746069 6.54585 0 4.95833 0C2.21992 0 0 2.21992 0 4.95833Z"/>
</mask>
<path fill-rule="evenodd" clip-rule="evenodd" d="M0 4.95833C0 6.16231 0.429122 7.26607 1.14276 8.125H1.11686L8.875 16L16.6331 8.125H16.5916C17.2646 7.27855 17.6667 6.20706 17.6667 5.04167C17.6667 2.30325 15.4467 0.0833333 12.7083 0.0833333C11.1591 0.0833333 9.77589 0.793814 8.86664 1.90671C7.95912 0.746069 6.54585 0 4.95833 0C2.21992 0 0 2.21992 0 4.95833Z" fill="#747B83"/>
<path d="M1.14276 8.125V9.125H3.27374L1.91192 7.48594L1.14276 8.125ZM1.11686 8.125V7.125H-1.27207L0.404483 8.8268L1.11686 8.125ZM8.875 16L8.16263 16.7018L8.875 17.4249L9.58737 16.7018L8.875 16ZM16.6331 8.125L17.3455 8.8268L19.0221 7.125H16.6331V8.125ZM16.5916 8.125L15.8089 7.50266L14.519 9.125H16.5916V8.125ZM8.86664 1.90671L8.07887 2.52268L8.84949 3.50824L9.64104 2.53941L8.86664 1.90671ZM1.91192 7.48594C1.34192 6.7999 1 5.92036 1 4.95833H-1C-1 6.40427 -0.483678 7.73224 0.373604 8.76405L1.91192 7.48594ZM1.11686 9.125H1.14276V7.125H1.11686V9.125ZM9.58737 15.2982L1.82923 7.4232L0.404483 8.8268L8.16263 16.7018L9.58737 15.2982ZM15.9208 7.4232L8.16263 15.2982L9.58737 16.7018L17.3455 8.8268L15.9208 7.4232ZM16.5916 9.125H16.6331V7.125H16.5916V9.125ZM16.6667 5.04167C16.6667 5.97302 16.3462 6.82678 15.8089 7.50266L17.3744 8.74733C18.183 7.73033 18.6667 6.4411 18.6667 5.04167H16.6667ZM12.7083 1.08333C14.8945 1.08333 16.6667 2.85554 16.6667 5.04167H18.6667C18.6667 1.75097 15.999 -0.916667 12.7083 -0.916667V1.08333ZM9.64104 2.53941C10.3685 1.64899 11.472 1.08333 12.7083 1.08333V-0.916667C10.8463 -0.916667 9.18326 -0.0613579 8.09224 1.27402L9.64104 2.53941ZM4.95833 1C6.22515 1 7.35271 1.59399 8.07887 2.52268L9.65441 1.29075C8.56553 -0.101848 6.86655 -1 4.95833 -1V1ZM1 4.95833C1 2.77221 2.77221 1 4.95833 1V-1C1.66764 -1 -1 1.66764 -1 4.95833H1Z" fill="white" mask="url(#path-1-inside-1_50_128)"/>
</svg>
